<svg xmlns="http://www.w3.org/2000/svg" width="24" height="24" viewBox="0 0 24 24" fill="none">
  <rect width="24" height="24" rx="8" fill="#C0E6C9"/>
  <path d="M8.91181 16.2666L7.73335 15.0882C7.47053 14.8254 7.023 14.931 6.90546 15.2836L6.31623 17.0513C6.18593 17.4422 6.5578 17.8141 6.94868 17.6838L8.71637 17.0945C9.06899 16.977 9.17463 16.5295 8.91181 16.2666Z" fill="#0AA932"/>
  <path d="M9.51741 16.0981L7.90194 14.4826C7.70668 14.2873 7.70668 13.9707 7.90194 13.7755L13.0013 8.67613C13.1965 8.48087 13.5131 8.48087 13.7084 8.67613L15.3239 10.2916C15.5191 10.4869 15.5191 10.8035 15.3239 10.9987L10.2245 16.0981C10.0293 16.2933 9.71268 16.2933 9.51741 16.0981Z" fill="#0AA932"/>
  <path d="M15.711 9.90451L14.0955 8.28904C13.9002 8.09378 13.9002 7.77719 14.0955 7.58193L15.3239 6.35355C15.5191 6.15829 15.8357 6.15829 16.031 6.35355L17.6464 7.96903C17.8417 8.16429 17.8417 8.48087 17.6464 8.67613L16.4181 9.90451C16.2228 10.0998 15.9062 10.0998 15.711 9.90451Z" fill="#0AA932"/>
  <path d="M8.91181 16.2666L7.73335 15.0882C7.47053 14.8254 7.023 14.931 6.90546 15.2836L6.31623 17.0513C6.18593 17.4422 6.5578 17.8141 6.94868 17.6838L8.71637 17.0945C9.06899 16.977 9.17463 16.5295 8.91181 16.2666Z" stroke="#0AA932" stroke-width="0.1"/>
  <path d="M9.51741 16.0981L7.90194 14.4826C7.70668 14.2873 7.70668 13.9707 7.90194 13.7755L13.0013 8.67613C13.1965 8.48087 13.5131 8.48087 13.7084 8.67613L15.3239 10.2916C15.5191 10.4869 15.5191 10.8035 15.3239 10.9987L10.2245 16.0981C10.0293 16.2933 9.71268 16.2933 9.51741 16.0981Z" stroke="#0AA932" stroke-width="0.1"/>
  <path d="M15.711 9.90451L14.0955 8.28904C13.9002 8.09378 13.9002 7.77719 14.0955 7.58193L15.3239 6.35355C15.5191 6.15829 15.8357 6.15829 16.031 6.35355L17.6464 7.96903C17.8417 8.16429 17.8417 8.48087 17.6464 8.67613L16.4181 9.90451C16.2228 10.0998 15.9062 10.0998 15.711 9.90451Z" stroke="#0AA932" stroke-width="0.1"/>
</svg>