<svg xmlns="http://www.w3.org/2000/svg" width="32" height="32" viewBox="0 0 32 32" fill="none">
  <path d="M10.4279 17.0501C8.71639 17.0501 7.51594 15.5872 7.51594 14.0786C7.51594 12.5701 8.85994 11.2261 10.4279 11.2261C11.0558 11.2261 11.6382 11.4495 12.1109 11.811C11.8216 13.4031 12.4425 14.561 13.0236 15.285C12.5952 16.2675 11.6592 17.0501 10.4279 17.0501Z" fill="white"/>
  <path d="M5.92155 20.4851C6.62359 18.8784 8.18067 17.4981 10.428 17.4981C11.0235 17.4981 11.5706 17.595 12.0662 17.7674C10.1387 19.4514 9.34375 21.3509 10 22.4261H7.5C6.39543 22.4261 5.47928 21.4973 5.92155 20.4851Z" fill="white"/>
  <path d="M24.7787 14.0786C24.7787 15.5379 23.6377 17.0501 21.9262 17.0501C20.6836 17.0501 19.7105 16.2791 19.2704 15.2794C19.896 14.562 20.4675 13.1807 20.1593 11.8443C20.6546 11.4609 21.2708 11.2261 21.9262 11.2261C23.4942 11.2261 24.7787 12.6193 24.7787 14.0786Z" fill="white"/>
  <path d="M21.9262 17.4981C24.1735 17.4981 25.7306 18.8784 26.4327 20.4851C26.8749 21.4973 25.9588 22.4261 24.8542 22.4261H22.3214C23.2357 21.2444 21.6175 18.9574 20.309 17.7602C20.7989 17.5923 21.339 17.4981 21.9262 17.4981Z" fill="white"/>
  <path d="M16.1773 16.28C14.0378 16.28 12.5373 14.4514 12.5373 12.5657C12.5373 10.68 14.2173 9 16.1773 9C18.1373 9 19.743 10.7416 19.743 12.5657C19.743 14.3898 18.3167 16.28 16.1773 16.28Z" fill="white"/>
  <path d="M10.3616 21.0393C11.1289 18.8397 13.1531 16.84 16.1773 16.84C19.2014 16.84 21.2257 18.8397 21.993 21.0393C22.3568 22.0823 21.4419 23 20.3373 23H16.1773H12.0173C10.9128 23 9.99782 22.0823 10.3616 21.0393Z" fill="white"/>
</svg>