<svg xmlns="http://www.w3.org/2000/svg" width="15" height="20" viewBox="0 0 15 20" fill="none">
  <path d="M13.967 3.06488L6.89636 10.0089L13.967 16.953C14.6777 17.651 14.6777 18.7785 13.967 19.4765C13.2563 20.1745 12.1082 20.1745 11.3975 19.4765L3.03303 11.2617L3.00566 18.5028C3.00253 19.3306 2.33061 20 1.50283 20V20C0.672842 20 0 19.3272 0 18.4972L0 10V5V1.5C0 0.671573 0.671573 0 1.5 0V0V0C2.32934 0 3.00253 0.670653 3.00567 1.49999L3.03303 8.73826L11.3975 0.52349C12.1082 -0.174497 13.2563 -0.174497 13.967 0.52349C14.6595 1.22148 14.6777 2.36689 13.967 3.06488Z" fill="#223843" fill-opacity="0.28"/>
</svg>