<svg xmlns="http://www.w3.org/2000/svg" width="15" height="20" viewBox="0 0 15 20" fill="none">
  <path d="M0.53303 16.9351L7.60364 9.99105L0.53303 3.04698C-0.177677 2.34899 -0.177677 1.22148 0.53303 0.523489C1.24374 -0.174498 2.3918 -0.174498 3.10251 0.523489L11.467 8.73826L11.4943 1.49716C11.4975 0.669386 12.1694 0 12.9972 0V0C13.8272 0 14.5 0.672842 14.5 1.50283L14.5 10V15V18.5C14.5 19.3284 13.8284 20 13 20V20V20C12.1707 20 11.4975 19.3293 11.4943 18.5L11.467 11.2617L3.10251 19.4765C2.3918 20.1745 1.24374 20.1745 0.53303 19.4765C-0.159453 18.7785 -0.177677 17.6331 0.53303 16.9351Z" fill="#223843" fill-opacity="0.28"/>
</svg>