<svg xmlns="http://www.w3.org/2000/svg" width="10" height="10" viewBox="0 0 10 10" fill="none">
  <path d="M4.75 1.25V4.75H1.25C1.11193 4.75 1 4.86193 1 5C1 5.13807 1.11193 5.25 1.25 5.25H4.75V8.75C4.75 8.88807 4.86193 9 5 9C5.13807 9 5.25 8.88807 5.25 8.75V5.25H8.75C8.88807 5.25 9 5.13807 9 5C9 4.86193 8.88807 4.75 8.75 4.75H5.25V1.25C5.25 1.11193 5.13807 1 5 1C4.86193 1 4.75 1.11193 4.75 1.25Z" fill="#858585" stroke="#858585" stroke-width="0.5" stroke-linecap="round" stroke-linejoin="round"/>
</svg>